<svg xmlns="http://www.w3.org/2000/svg" viewBox="0 0 447.63 48.26"><defs><style>.cls-1{fill:#40bf40;}</style></defs><title>Asset 1</title><g id="Layer_2" data-name="Layer 2"><g id="Layer_1-2" data-name="Layer 1"><path class="cls-1" d="M34,36.73H30L23.13,13.78q-.49-1.52-1.1-3.84a22.42,22.42,0,0,1-.63-2.79,53.37,53.37,0,0,1-1.64,6.77l-6.7,22.8H9.12L0,2.46H4.22L9.63,23.63a78.71,78.71,0,0,1,1.64,8.06,58.23,58.23,0,0,1,1.88-8.39L19.29,2.46h4.22l6.45,21a63.91,63.91,0,0,1,1.9,8.2,70.27,70.27,0,0,1,1.69-8.11L38.93,2.46h4.22Z"/><path class="cls-1" d="M65.51,36.73V20.11a6.7,6.7,0,0,0-1.43-4.69,5.82,5.82,0,0,0-4.48-1.55q-4.05,0-5.92,2.2T51.82,23.3V36.73H47.93V.26h3.89v11a24.05,24.05,0,0,1-.19,3.3h.23a7.94,7.94,0,0,1,3.27-2.92A10.63,10.63,0,0,1,60,10.62q4.71,0,7.07,2.24T69.4,20V36.73Z"/><path class="cls-1" d="M73.31,11h4.17l5.63,14.65a55.72,55.72,0,0,1,2.3,7.24h.19q.3-1.2,1.28-4.09T93.23,11h4.17l-11,29.25a14.59,14.59,0,0,1-3.83,6.15,8.15,8.15,0,0,1-5.38,1.82,15.65,15.65,0,0,1-3.52-.4V44.74a13.56,13.56,0,0,0,2.88.28q4,0,5.72-4.5l1.43-3.66Z"/><path class="cls-1" d="M131.53,33.28h-.21q-2.7,3.91-8.06,3.91a9.54,9.54,0,0,1-7.84-3.45q-2.8-3.45-2.8-9.8t2.81-9.87a9.46,9.46,0,0,1,7.83-3.52,9.34,9.34,0,0,1,8,3.8h.3l-.16-1.85-.09-1.8V.26h3.89V36.73H132Zm-7.78.66q4,0,5.78-2.17t1.79-7V24q0-5.46-1.82-7.79t-5.8-2.33a6,6,0,0,0-5.24,2.66q-1.82,2.66-1.82,7.51t1.8,7.43A6.11,6.11,0,0,0,123.75,33.94Z"/><path class="cls-1" d="M154.31,37.2a11.8,11.8,0,0,1-9-3.47Q142,30.26,142,24.09t3.06-9.87a10.16,10.16,0,0,1,8.21-3.66,9.69,9.69,0,0,1,7.64,3.18,12.17,12.17,0,0,1,2.81,8.38v2.46h-17.7q.12,4.52,2.29,6.87a7.9,7.9,0,0,0,6.11,2.34,20.69,20.69,0,0,0,8.2-1.73v3.47a20.59,20.59,0,0,1-3.9,1.28A21.93,21.93,0,0,1,154.31,37.2Zm-1.05-23.37a6.35,6.35,0,0,0-4.93,2,9.29,9.29,0,0,0-2.17,5.58h13.43a8.55,8.55,0,0,0-1.64-5.64A5.77,5.77,0,0,0,153.26,13.83Z"/><path class="cls-1" d="M187,29.72a6.43,6.43,0,0,1-2.67,5.53q-2.67,1.95-7.5,1.95a16.31,16.31,0,0,1-8-1.62V32a19.27,19.27,0,0,0,4,1.48,16.59,16.59,0,0,0,4.09.54,9.27,9.27,0,0,0,4.69-1,3.35,3.35,0,0,0,.34-5.53A20.46,20.46,0,0,0,176.84,25a27.52,27.52,0,0,1-5.1-2.33,7,7,0,0,1-2.25-2.26,5.9,5.9,0,0,1-.74-3,5.76,5.76,0,0,1,2.55-5,11.9,11.9,0,0,1,7-1.82,20.5,20.5,0,0,1,8.11,1.69L185,15.42a18.61,18.61,0,0,0-7-1.59,8.06,8.06,0,0,0-4.17.87,2.68,2.68,0,0,0-1.41,2.39,2.91,2.91,0,0,0,.53,1.76,5.2,5.2,0,0,0,1.7,1.38,38,38,0,0,0,4.5,1.9q4.57,1.66,6.18,3.35A5.91,5.91,0,0,1,187,29.72Z"/><path class="cls-1" d="M193,4.08a2.58,2.58,0,0,1,.66-2,2.43,2.43,0,0,1,3.26,0,2.54,2.54,0,0,1,.68,1.95,2.58,2.58,0,0,1-.68,2,2.38,2.38,0,0,1-3.26,0A2.63,2.63,0,0,1,193,4.08Zm4.22,32.65h-3.89V11h3.89Z"/><path class="cls-1" d="M226.45,11V13.5l-4.76.56a8.36,8.36,0,0,1,1.69,5.13,7.59,7.59,0,0,1-2.58,6,10.4,10.4,0,0,1-7.08,2.25,11.79,11.79,0,0,1-2.16-.19q-2.48,1.31-2.48,3.3a1.68,1.68,0,0,0,.87,1.56,6.33,6.33,0,0,0,3,.5h4.55a10.18,10.18,0,0,1,6.41,1.76,6.11,6.11,0,0,1,2.24,5.11A7.29,7.29,0,0,1,222.7,46q-3.42,2.24-10,2.24-5,0-7.77-1.87a6.05,6.05,0,0,1-2.73-5.3,6,6,0,0,1,1.5-4.05,7.64,7.64,0,0,1,4.22-2.32,4.07,4.07,0,0,1-1.65-1.38,3.66,3.66,0,0,1-.67-2.18,4.14,4.14,0,0,1,.75-2.46,7.89,7.89,0,0,1,2.37-2,6.94,6.94,0,0,1-3.25-2.79,8.2,8.2,0,0,1-1.25-4.5,8.31,8.31,0,0,1,2.53-6.5q2.53-2.29,7.17-2.29a13,13,0,0,1,3.63.47ZM206,41a3.49,3.49,0,0,0,1.76,3.16,9.7,9.7,0,0,0,5,1.08q4.9,0,7.25-1.46a4.49,4.49,0,0,0,2.36-4,3.14,3.14,0,0,0-1.29-2.89q-1.29-.81-4.85-.81h-4.66a6.14,6.14,0,0,0-4.12,1.27A4.52,4.52,0,0,0,206,41Zm2.11-21.77a5.23,5.23,0,0,0,1.52,4.08,6.08,6.08,0,0,0,4.24,1.38q5.7,0,5.7-5.53,0-5.79-5.77-5.79a5.71,5.71,0,0,0-4.22,1.48A6,6,0,0,0,208.08,19.27Z"/><path class="cls-1" d="M249.3,36.73V20.11a6.7,6.7,0,0,0-1.43-4.69,5.82,5.82,0,0,0-4.48-1.55q-4,0-5.91,2.18t-1.87,7.2V36.73h-3.89V11h3.16l.63,3.52h.19a7.94,7.94,0,0,1,3.35-2.94,10.89,10.89,0,0,1,4.8-1q4.64,0,7,2.24T253.2,20V36.73Z"/><path class="cls-1" d="M285.23,14.06H278.7V36.73H274.8V14.06h-4.59V12.3l4.59-1.41V9.47Q274.8,0,283.08,0a17,17,0,0,1,4.78.82l-1,3.12A12.87,12.87,0,0,0,283,3.21a3.74,3.74,0,0,0-3.26,1.46,8.18,8.18,0,0,0-1.05,4.7V11h6.54Z"/><path class="cls-1" d="M312.09,23.86q0,6.28-3.16,9.81a11.14,11.14,0,0,1-8.74,3.53,11.58,11.58,0,0,1-6.12-1.62,10.67,10.67,0,0,1-4.12-4.64,16.17,16.17,0,0,1-1.45-7.08q0-6.28,3.14-9.79t8.72-3.5a10.87,10.87,0,0,1,8.57,3.59Q312.09,17.74,312.09,23.86Zm-19.57,0q0,4.92,2,7.5a7.81,7.81,0,0,0,11.59,0q2-2.57,2-7.51t-2-7.44a7,7,0,0,0-5.85-2.54,6.85,6.85,0,0,0-5.77,2.51Q292.52,18.89,292.52,23.86Z"/><path class="cls-1" d="M330.63,10.57a15.22,15.22,0,0,1,3.07.28l-.54,3.61a13.25,13.25,0,0,0-2.81-.35A6.85,6.85,0,0,0,325,16.64a9.23,9.23,0,0,0-2.21,6.3V36.73h-3.89V11h3.21l.45,4.76h.19a11.29,11.29,0,0,1,3.45-3.87A7.76,7.76,0,0,1,330.63,10.57Z"/><path class="cls-1" d="M359.27,34a12.71,12.71,0,0,0,2-.15,12.9,12.9,0,0,0,1.52-.32v3a7.11,7.11,0,0,1-1.86.5,14,14,0,0,1-2.21.2q-7.45,0-7.45-7.85V14.06h-3.68V12.19l3.68-1.62,1.64-5.48h2.25v6h7.45v3h-7.45V29.18a5.2,5.2,0,0,0,1.1,3.56A3.83,3.83,0,0,0,359.27,34Z"/><path class="cls-1" d="M385.5,36.73V20.11a6.7,6.7,0,0,0-1.43-4.69,5.82,5.82,0,0,0-4.48-1.55q-4.05,0-5.92,2.2t-1.86,7.22V36.73h-3.89V.26h3.89v11a24.05,24.05,0,0,1-.19,3.3h.23a7.94,7.94,0,0,1,3.27-2.92A10.63,10.63,0,0,1,380,10.62q4.71,0,7.07,2.24T389.39,20V36.73Z"/><path class="cls-1" d="M397.05,4.08a2.58,2.58,0,0,1,.66-2,2.43,2.43,0,0,1,3.26,0,2.54,2.54,0,0,1,.68,1.95A2.58,2.58,0,0,1,401,6a2.38,2.38,0,0,1-3.26,0A2.63,2.63,0,0,1,397.05,4.08Zm4.22,32.65h-3.89V11h3.89Z"/><path class="cls-1" d="M426.09,29.72a6.43,6.43,0,0,1-2.67,5.53q-2.67,1.95-7.5,1.95a16.31,16.31,0,0,1-8-1.62V32a19.27,19.27,0,0,0,4,1.48A16.59,16.59,0,0,0,416,34a9.27,9.27,0,0,0,4.69-1,3.35,3.35,0,0,0,.34-5.53A20.46,20.46,0,0,0,416,25a27.52,27.52,0,0,1-5.1-2.33,7,7,0,0,1-2.25-2.26,5.9,5.9,0,0,1-.74-3,5.76,5.76,0,0,1,2.55-5,11.9,11.9,0,0,1,7-1.82,20.5,20.5,0,0,1,8.11,1.69l-1.38,3.16a18.61,18.61,0,0,0-7-1.59,8.06,8.06,0,0,0-4.17.87,2.68,2.68,0,0,0-1.41,2.39,2.91,2.91,0,0,0,.53,1.76,5.2,5.2,0,0,0,1.7,1.38,38,38,0,0,0,4.5,1.9q4.57,1.66,6.18,3.35A5.91,5.91,0,0,1,426.09,29.72Z"/><path class="cls-1" d="M435.07,27.28V26a10.5,10.5,0,0,1,.84-4.51,12.08,12.08,0,0,1,3.14-3.74,21.2,21.2,0,0,0,4-4.05,6.17,6.17,0,0,0,.83-3.28,4.57,4.57,0,0,0-1.54-3.69A6.65,6.65,0,0,0,438,5.44a15,15,0,0,0-3.61.43,19.57,19.57,0,0,0-4,1.58l-1.38-3.16A19.69,19.69,0,0,1,438.19,2a10.14,10.14,0,0,1,7,2.2,7.87,7.87,0,0,1,2.48,6.21,9.07,9.07,0,0,1-.46,3,8.84,8.84,0,0,1-1.35,2.46A32.36,32.36,0,0,1,442,19.59a14.46,14.46,0,0,0-3.13,3.35,7.18,7.18,0,0,0-.76,3.56v.77Zm-1.15,7q0-3.19,2.81-3.19a2.68,2.68,0,0,1,2.1.82,3.42,3.42,0,0,1,.74,2.37,3.36,3.36,0,0,1-.75,2.33,2.66,2.66,0,0,1-2.09.83,2.85,2.85,0,0,1-2-.74A3.18,3.18,0,0,1,433.92,34.24Z"/></g></g></svg>