<svg xmlns="http://www.w3.org/2000/svg" viewBox="0 0 323.9 156.69"><title>black-wave</title><g id="Layer_2" data-name="Layer 2"><g id="Layer_2-2" data-name="Layer 2"><path d="M46.22,156.69c-.69-.36-1.16-.62-1.71-.94l-1.56-.92q-1.54-.93-3-1.9-3-1.95-5.81-4.08a107.61,107.61,0,0,1-10.76-9.23A83.48,83.48,0,0,1,6.41,116.54,62.78,62.78,0,0,1,0,88.26,66.24,66.24,0,0,1,1.79,73.89a55.11,55.11,0,0,1,5-13.78,37,37,0,0,1,9.71-11.74A34.6,34.6,0,0,1,30.38,41.9a46.34,46.34,0,0,1,14.74-.77,53.7,53.7,0,0,1,14.11,3.42,64.31,64.31,0,0,1,12.6,6.73c1.95,1.31,3.82,2.68,5.65,4.11l1.36,1.08.59.48.58.44c.83.6,1.72,1.21,2.61,1.79a93.12,93.12,0,0,0,11.26,6.29,58.1,58.1,0,0,0,11.9,4.19,23.73,23.73,0,0,0,11.61.06,13.56,13.56,0,0,0,8.19-6.8A32.29,32.29,0,0,0,129,51.24a77.25,77.25,0,0,0,.28-12.91c-.11-2.1-.34-4.55-.25-6.94a33.07,33.07,0,0,1,1-7.23,25.1,25.1,0,0,1,2.84-6.9,24.14,24.14,0,0,1,4.82-5.72,35.72,35.72,0,0,1,12.64-6.73,81.71,81.71,0,0,1,13.49-2.92c4.51-.63,9-1,13.51-1.34s9-.55,13.56-.55a156.36,156.36,0,0,1,27,2.54A178.71,178.71,0,0,1,244,9.38c4.26,1.47,8.48,3.07,12.62,4.84q3.11,1.32,6.16,2.77l3,1.48,1.5.77.75.39.37.19.18.09s0,0,0,0l.2.07a194.33,194.33,0,0,1,16.79,9.91,169.9,169.9,0,0,1,15.66,11.56A98.57,98.57,0,0,1,315,55.22c4,5.06,7.47,10.76,8.92,17.1-1.6-6.3-5.17-11.88-9.28-16.81a97.89,97.89,0,0,0-14-13.34,168.77,168.77,0,0,0-15.82-11.11A192.94,192.94,0,0,0,268,21.64l.19.07-.38-.15-.2-.09-.38-.19-.75-.37-1.5-.72-3-1.39q-3-1.36-6.15-2.6c-4.13-1.66-8.33-3.14-12.57-4.49A175.93,175.93,0,0,0,217.31,5.6a153,153,0,0,0-26.46-1.86c-4.42.1-8.8.42-13.26.85s-8.84.92-13.18,1.63a77.31,77.31,0,0,0-12.66,3,31,31,0,0,0-10.79,6,19.07,19.07,0,0,0-5.81,10.13,27.7,27.7,0,0,0-.65,6.08c0,2.09.21,4.1.4,6.47a82.93,82.93,0,0,1,0,13.91,38.21,38.21,0,0,1-3.78,14,21.62,21.62,0,0,1-4.79,6.19,19.5,19.5,0,0,1-7,3.92,30.28,30.28,0,0,1-15,.41,65,65,0,0,1-13.5-4.38,100.43,100.43,0,0,1-12.33-6.51c-1-.62-2-1.25-3-1.94l-.78-.55-.73-.56-1.29-1c-1.73-1.28-3.5-2.52-5.3-3.66a56.26,56.26,0,0,0-11.17-5.65,45.35,45.35,0,0,0-12-2.61,37.74,37.74,0,0,0-12,.89,25.58,25.58,0,0,0-10.18,5,27.66,27.66,0,0,0-7,9A45.61,45.61,0,0,0,11.34,76a58.34,58.34,0,0,0-1,6.14,50.63,50.63,0,0,0-.28,6.14A52.31,52.31,0,0,0,16,111.77a72.51,72.51,0,0,0,15.19,19.65,96.12,96.12,0,0,0,9.8,8c1.72,1.23,3.48,2.41,5.27,3.52q1.34.83,2.7,1.61l1.35.75c.43.23.94.5,1.25.65Z"/></g></g></svg>