<svg xmlns="http://www.w3.org/2000/svg" viewBox="0 0 308.46 233.27"><defs><style>.cls-1{fill:#fff;stroke:#000;stroke-miterlimit:10;}</style></defs><title>checkerboard</title><g id="Layer_2" data-name="Layer 2"><g id="Layer_2-2" data-name="Layer 2"><polygon class="cls-1" points="0.7 90.61 17.34 121.7 32.36 149.76 56.8 195.43 76.7 232.61 307.7 117.61 284.08 86.2 264.67 60.4 239.33 26.7 219.7 0.61 0.7 90.61"/><line class="cls-1" x1="264.7" y1="60.61" x2="36.7" y2="157.61"/><line class="cls-1" x1="283.7" y1="86.61" x2="56.7" y2="195.61"/><line class="cls-1" x1="239.7" y1="26.61" x2="17.7" y2="121.61"/><line class="cls-1" x1="24.05" y1="81.01" x2="102.55" y2="219.74"/><line class="cls-1" x1="56.7" y1="67.6" x2="133.9" y2="204.14"/><line class="cls-1" x1="95.3" y1="51.73" x2="170.2" y2="186.06"/><line class="cls-1" x1="128.7" y1="38.01" x2="206.2" y2="168.14"/><line class="cls-1" x1="156.44" y1="26.61" x2="227.35" y2="157.61"/><line class="cls-1" x1="175.11" y1="18.94" x2="255.93" y2="143.38"/><line class="cls-1" x1="200.38" y1="8.55" x2="283.7" y2="129.56"/><polygon points="0.7 90.61 17.34 121.7 41.31 111.51 24.05 81.01 0.7 90.61"/><polygon points="41.31 111.51 61.44 147.09 93.85 133.3 73.69 97.65 41.31 111.51"/><polygon points="93.85 133.3 113.55 168.14 150.49 150.72 131.78 117.16 93.85 133.3"/><polygon points="150.49 150.72 170.2 186.06 206.2 168.14 185.68 133.68 150.49 150.72"/><polygon points="185.68 133.68 166.93 102.2 191.9 91.58 208.47 122.73 185.68 133.68"/><polygon points="208.47 122.73 227.35 157.61 255.93 143.38 234.43 110.27 208.47 122.73"/><polygon points="234.43 110.27 215.52 81.53 242.68 69.98 261.48 97.28 234.43 110.27"/><polygon points="261.48 97.28 283.7 129.56 307.7 117.61 284.08 86.2 261.48 97.28"/><polygon points="113.55 168.14 133.9 204.13 102.55 219.74 82.01 183.46 113.55 168.14"/><polygon points="82.01 183.46 56.7 195.61 36.7 157.61 61.44 147.09 82.01 183.46"/><polygon points="73.69 97.65 56.7 67.6 95.3 51.73 111.81 81.34 73.69 97.65"/><polygon points="111.81 81.34 131.78 117.16 166.93 102.2 145.84 66.78 111.81 81.34"/><polygon points="191.9 91.58 172.1 55.54 193.05 46.57 215.52 81.53 191.9 91.58"/><polygon points="242.68 69.98 264.7 60.61 239.33 26.7 218.94 35.5 242.68 69.98"/><polygon points="218.94 35.5 200.38 8.55 175.11 18.94 193.05 46.57 218.94 35.5"/><polygon points="172.1 55.54 145.84 66.78 128.7 38.01 156.44 26.61 172.1 55.54"/></g></g></svg>