<svg xmlns="http://www.w3.org/2000/svg" viewBox="0 0 468.02 159.36"><defs><style>.cls-1{fill:#63a589;}</style></defs><title>wave</title><g id="Layer_2" data-name="Layer 2"><g id="Layer_1-2" data-name="Layer 1"><path class="cls-1" d="M0,79.9c.42-1.17.76-2.06,1.14-3.06L2.28,74q1.16-2.86,2.39-5.68,2.46-5.63,5.24-11.14A164.21,164.21,0,0,1,22.76,35.61a99.49,99.49,0,0,1,8.31-10.16,61.18,61.18,0,0,1,10.7-9.16c1-.71,2.15-1.32,3.23-2s2.28-1.22,3.54-1.71a34.84,34.84,0,0,1,7.91-2.37A33,33,0,0,1,65.06,10c.71.09,1.42.21,2.13.32l1.06.18,1,.26,2,.55,1.94.71a41.53,41.53,0,0,1,12.88,8.09,67.9,67.9,0,0,1,9.1,10.09c1.36,1.73,2.51,3.52,3.73,5.29s2.3,3.58,3.31,5.4l1.56,2.72,1.46,2.74c1,1.82,1.88,3.67,2.79,5.51,3.57,7.37,6.63,14.84,9.42,22.34l2,5.47c.66,1.77,1.31,3.56,2,5.3q2.06,5.28,4.36,10.4a140,140,0,0,0,10.38,19.37,67.06,67.06,0,0,0,6.33,8.18,30.62,30.62,0,0,0,7.08,5.89l.9.52.9.4a15.5,15.5,0,0,0,1.79.67,12.31,12.31,0,0,0,3.52.48,12.14,12.14,0,0,0,3.63-.58,18.76,18.76,0,0,0,1.89-.68c.63-.34,1.28-.57,1.92-1a34.68,34.68,0,0,0,7.51-6,71.21,71.21,0,0,0,6.77-8.13,139.53,139.53,0,0,0,11.29-19.13,226,226,0,0,0,9-20.83c.66-1.77,1.31-3.56,1.91-5.31l1-2.84,1-2.86c1.42-3.78,2.94-7.49,4.57-11.16a173.36,173.36,0,0,1,11.25-21.42,95,95,0,0,1,15.5-19.36A50,50,0,0,1,244.7,4,37.21,37.21,0,0,1,251,1.36a31.61,31.61,0,0,1,13.8-1c1.13.23,2.27.43,3.37.73s2.2.61,3.23,1.05a45.08,45.08,0,0,1,11.33,6.47,87.25,87.25,0,0,1,16.73,18A177.28,177.28,0,0,1,311.94,47c3.72,7,7.08,14.13,10.25,21.33l2.33,5.42c.77,1.81,1.49,3.64,2.23,5.45L331.16,90c3,7.09,6.3,14.08,9.9,20.88a156.8,156.8,0,0,0,12.11,19.52,85.27,85.27,0,0,0,15.58,16.47c5.95,4.53,12.81,8,20.21,8.78s14.94-.95,21.7-4.36a76.58,76.58,0,0,0,18.46-13.55,145.18,145.18,0,0,0,15.19-17.55,221.18,221.18,0,0,0,12.83-19.46C461.08,94,464.77,87.16,468,80.08c-3,7.18-6.52,14.17-10.26,21A222.24,222.24,0,0,1,445.47,121a147,147,0,0,1-14.83,18.23A79,79,0,0,1,412,153.85a47.38,47.38,0,0,1-11.22,4.39,37.85,37.85,0,0,1-24-1.93,53.64,53.64,0,0,1-10.58-6,89.84,89.84,0,0,1-17-16.87A162.11,162.11,0,0,1,336,113.68c-3.91-6.86-7.46-13.91-10.78-21L320.47,81.9c-.79-1.77-1.55-3.54-2.36-5.3l-2.45-5.25c-3.33-7-6.83-13.83-10.63-20.49a169.13,169.13,0,0,0-12.51-19.07c-1.15-1.49-2.3-3-3.53-4.37s-2.46-2.79-3.73-4.14a64.61,64.61,0,0,0-8.14-7.19c-5.74-4.13-12.21-6.75-18.43-6-6.24.58-12.15,4.35-17.18,9.27a84.27,84.27,0,0,0-13.07,17.48,161.66,161.66,0,0,0-9.85,20.26c-1.42,3.5-2.75,7-4,10.6l-.88,2.66-.83,2.72c-.6,2-1.22,3.85-1.87,5.75a239.13,239.13,0,0,1-8.87,22.36,153.25,153.25,0,0,1-11.82,21.46,85.7,85.7,0,0,1-7.88,10.06A49.44,49.44,0,0,1,172,141.57c-1,.66-2.14,1.2-3.23,1.78a34,34,0,0,1-3.55,1.44,27.55,27.55,0,0,1-7.83,1.51,27.85,27.85,0,0,1-8.05-.8,31.05,31.05,0,0,1-3.74-1.22l-1.79-.74-1.67-.86A46.18,46.18,0,0,1,131,134.1a83,83,0,0,1-8.29-10,156.21,156.21,0,0,1-12.38-21.42q-2.66-5.47-5-11c-.82-1.84-1.56-3.7-2.32-5.55l-2.21-5.42c-2.85-7-5.93-13.9-9.37-20.45-.86-1.63-1.72-3.27-2.64-4.84L87.39,53,86,50.69c-.92-1.57-2-3-2.94-4.48S81,43.34,79.89,42A48.58,48.58,0,0,0,73.16,35a21.65,21.65,0,0,0-6.9-4.13l-.81-.28-.79-.17-.39-.1-.39,0-.76-.1a12.74,12.74,0,0,0-3,.23,14.42,14.42,0,0,0-3.22,1.12c-.55.21-1.12.61-1.69.88s-1.15.69-1.72,1.14a40.63,40.63,0,0,0-6.8,6.27,78.46,78.46,0,0,0-6.22,8.13A142.82,142.82,0,0,0,29.95,66.89q-2.33,5-4.4,10.16-1,2.57-2,5.16l-.93,2.58c-.29.83-.61,1.77-.83,2.44Z"/></g></g></svg>