<svg xmlns="http://www.w3.org/2000/svg" viewBox="0 0 252.5 384.14"><defs><style>.cls-1,.cls-2{fill:none;stroke:#000;stroke-miterlimit:10;}.cls-1{stroke-width:2px;}.cls-2{stroke-width:4px;}</style></defs><title>Asset19</title><g id="Layer_2" data-name="Layer 2"><g id="Layer_1-2" data-name="Layer 1"><path d="M47,0A301.13,301.13,0,0,0,37.2,39.26C36,45.88,35,52.54,34.21,59.19s-1.31,13.35-1.63,20A230.27,230.27,0,0,0,34,119.14a196.89,196.89,0,0,0,3.36,19.59,172.57,172.57,0,0,0,5.58,19,162.74,162.74,0,0,0,7.68,18.17c1.51,3,3.16,5.87,4.71,8.82s3.07,5.93,4.85,8.75L65.38,202c.83,1.44,1.76,2.83,2.69,4.21l2.77,4.15,2.77,4.15c.45.7.93,1.38,1.44,2l1.49,2c2,2.66,3.95,5.36,6,8l6.31,7.72c1,1.31,2.18,2.51,3.28,3.75l3.34,3.7,1.66,1.86c.56.62,1.15,1.19,1.73,1.79L102.3,249c2.28,2.42,4.77,4.6,7.19,6.88l1.82,1.69,1.89,1.61,3.79,3.22c1.26,1.08,2.6,2,3.89,3.08s2.6,2.06,4,3l4,2.88L133,274c1.4.85,2.79,1.73,4.2,2.54l2.12,1.19,1.06.55.53.27.47.23.27.13c3.62,2,7.54,3.87,11.39,5.67s7.81,3.52,11.77,5.18q11.87,5,24.13,9.08c2,.73,4.08,1.37,6.13,2s4.1,1.34,6.17,1.92c4.14,1.19,8.28,2.41,12.46,3.46,8.34,2.25,16.81,4,25.31,5.71l-6.47-.62c-2.16-.22-4.32-.41-6.47-.73l-6.45-.91c-2.16-.28-4.28-.72-6.43-1.08-8.58-1.44-17.06-3.45-25.5-5.65s-16.74-4.9-25-7.82c-4.12-1.45-8.2-3-12.25-4.71s-8-3.43-12.08-5.44l.27.13-.68-.3-.61-.29-1.22-.57-2.35-1.2c-1.56-.81-3.06-1.68-4.59-2.53l-4.45-2.71c-1.46-.94-2.89-1.92-4.32-2.89s-2.82-2-4.21-3-2.81-2-4.14-3.12l-4-3.26-2-1.63-1.94-1.71c-2.56-2.3-5.22-4.52-7.64-7l-3.71-3.61c-.61-.61-1.25-1.19-1.84-1.82l-1.76-1.89-3.51-3.8c-1.16-1.27-2.37-2.51-3.44-3.85l-6.63-7.92c-2.13-2.7-4.15-5.49-6.22-8.23l-1.55-2.06c-.53-.68-1-1.38-1.5-2.1l-2.88-4.27-2.88-4.28L59.09,209c-.48-.71-.89-1.47-1.34-2.2L52.47,198c-1.83-2.91-3.33-6-5-9s-3.22-6-4.76-9.13l-2.18-4.74-1.09-2.37-1-2.42-1.92-4.85c-.64-1.61-1.13-3.28-1.69-4.92a180.89,180.89,0,0,1-5.39-20.06l-.94-5.1-.47-2.55-.37-2.56L27,125.1c-.2-1.71-.36-3.43-.53-5.14-.37-3.43-.47-6.87-.68-10.31-.08-1.72-.08-3.44-.12-5.16s-.08-3.44,0-5.15l.07-5.15c0-1.71.15-3.43.22-5.14.11-3.43.45-6.84.72-10.25q1-10.22,2.77-20.32c1.17-6.73,2.67-13.38,4.34-20s3.6-13.13,5.8-19.56A191.32,191.32,0,0,1,47,0Z"/><line class="cls-1" x1="111.51" y1="155.99" x2="0.51" y2="221.99"/><line class="cls-2" x1="0.51" y1="233.99" x2="252.5" y2="233.99"/><line class="cls-1" x1="21.51" y1="349.48" x2="134" y2="191.53"/><line class="cls-1" x1="167" y1="383.98" x2="189.5" y2="241.49"/></g></g></svg>