<svg xmlns="http://www.w3.org/2000/svg" viewBox="0 0 173.5 173.5"><defs><style>.cls-1{fill:#fff;stroke:#000;stroke-miterlimit:10;}</style></defs><title>Asset 13</title><g id="Layer_2" data-name="Layer 2"><g id="Layer_1-2" data-name="Layer 1"><path class="cls-1" d="M173,173H.5V.5H173ZM29.5.5V173M86.75.5V173M56.5.5V173M118.5.5V173M145.5.5V173M.5,86.75H173M.5,115.5H173M.5,147.5H173M.5,59.5H173M.5,28.5H173"/><rect x="0.5" y="0.5" width="29" height="28"/><rect x="56.5" y="0.5" width="30.25" height="28"/><rect x="117.88" y="0.5" width="28" height="28"/><rect x="29.5" y="28.5" width="27" height="31"/><rect x="86.75" y="28.5" width="31.75" height="31.75"/><rect x="145" y="28.5" width="28" height="31"/><rect x="0.5" y="59.5" width="29" height="27"/><rect x="56.12" y="58.5" width="30.63" height="28"/><rect x="29.12" y="86.5" width="27.38" height="29"/><rect x="86.75" y="86.5" width="31.75" height="29"/><rect x="145.88" y="86.5" width="27.12" height="29"/><rect x="118.19" y="115.5" width="27.12" height="32"/><rect x="56.12" y="115.5" width="30.63" height="32"/><rect x="29.12" y="147.5" width="27.38" height="25.5"/><rect x="86.75" y="147.5" width="31.13" height="25.5"/><rect x="145.88" y="147.5" width="27.12" height="25.5"/><rect x="0.5" y="115.5" width="29" height="32"/><rect x="118.5" y="59.5" width="26.5" height="28"/></g></g></svg>