<svg xmlns="http://www.w3.org/2000/svg" viewBox="0 0 399.93 192.32"><title>Asset22</title><g id="Layer_2" data-name="Layer 2"><g id="Layer_1-2" data-name="Layer 1"><path d="M56,192.32c-1.55-1-2.87-2-4.27-3s-2.73-2-4.07-3.05q-4-3.1-7.86-6.4a176.07,176.07,0,0,1-14.65-14.07,126.84,126.84,0,0,1-12.74-16.09A81.59,81.59,0,0,1,3,131,53.36,53.36,0,0,1,.15,109.74a45.42,45.42,0,0,1,.73-5.41c.16-.9.4-1.78.59-2.66l.67-2.48q1.39-4.93,3.2-9.75A87.9,87.9,0,0,1,14.81,71,54.57,54.57,0,0,1,29.77,56a39.86,39.86,0,0,1,9.86-4.7A36,36,0,0,1,45,50a37.7,37.7,0,0,1,5.45-.51,43.76,43.76,0,0,1,10.73,1.1,55.45,55.45,0,0,1,10,3.29,87.32,87.32,0,0,1,17.67,10.5A146.79,146.79,0,0,1,104,77.67l1.77,1.78c.57.55,1.07,1.09,1.64,1.6a39.48,39.48,0,0,0,11.38,7.39A38,38,0,0,0,127.52,91a26.73,26.73,0,0,0,8.73-.37,32.57,32.57,0,0,0,16.06-7.72,30.87,30.87,0,0,0,8.93-15.4c.19-.74.34-1.5.51-2.25s.26-1.53.39-2.29a26.82,26.82,0,0,0,.29-4.5c0-3.11-.34-6.36-.59-9.65-.5-6.58-.89-13.47.57-20.35a34.16,34.16,0,0,1,3.7-9.88,32.61,32.61,0,0,1,6.7-8.17c.69-.56,1.32-1.12,2.05-1.67a22,22,0,0,1,2.29-1.49A32.7,32.7,0,0,1,182,5a62,62,0,0,1,9.85-2.65A141.66,141.66,0,0,1,211.68.23c6.63-.29,13.24-.29,19.85-.1s13.2.57,19.77,1.13c3.29.28,6.57.6,9.86,1,1.64.2,3.29.39,5,.69s3.28.65,4.9,1c6.46,1.55,12.77,3.5,19,5.63s12.41,4.49,18.49,7a278.82,278.82,0,0,1,35.32,17.73A193,193,0,0,1,375.64,57.8c9.66,8.93,18.2,19.21,24.3,30.88-6.3-11.56-15-21.65-24.76-30.37a191.94,191.94,0,0,0-32-22.74,277.1,277.1,0,0,0-35.41-17q-9.13-3.63-18.47-6.66c-6.23-2-12.52-3.82-18.87-5.23-1.59-.35-3.18-.67-4.76-.92s-3.18-.41-4.81-.58c-3.25-.32-6.51-.59-9.77-.8q-9.79-.65-19.61-.77c-6.54-.07-13.07,0-19.57.44a137.83,137.83,0,0,0-19.26,2.39A57.82,57.82,0,0,0,183.5,9a28.39,28.39,0,0,0-4.12,2,17.57,17.57,0,0,0-1.82,1.23c-.57.44-1.16,1-1.74,1.47a28,28,0,0,0-5.63,7.1,29.39,29.39,0,0,0-3,8.56c-1.19,6.06-.76,12.46-.15,18.94.3,3.26.68,6.55.78,10a32.25,32.25,0,0,1-.26,5.33c-.13.86-.23,1.72-.39,2.57s-.34,1.71-.54,2.56a36.59,36.59,0,0,1-10.32,18.36,38.56,38.56,0,0,1-18.86,9.49,40,40,0,0,1-5.28.73,25.31,25.31,0,0,1-5.58-.16,44.46,44.46,0,0,1-10.24-2.76,46.14,46.14,0,0,1-13.45-8.41c-.66-.57-1.3-1.23-1.92-1.81l-1.73-1.69A139.83,139.83,0,0,0,84.57,70.14a80,80,0,0,0-16.31-9.33,41.85,41.85,0,0,0-17.58-3.46,31.12,31.12,0,0,0-16.37,5.47,46.25,46.25,0,0,0-12.39,13,79.23,79.23,0,0,0-8.21,16.73c-1.06,3-2,6-2.79,9l-.58,2.29c-.14.72-.33,1.43-.44,2.15a36.2,36.2,0,0,0-.51,4.36,43.93,43.93,0,0,0,2.71,17.49,71.9,71.9,0,0,0,8.54,16.3,116.79,116.79,0,0,0,12,14.58,165.64,165.64,0,0,0,14,13q3.69,3.05,7.53,5.92,1.92,1.43,3.87,2.8c1.28.9,2.65,1.83,3.86,2.6Z"/></g></g></svg>