<svg xmlns="http://www.w3.org/2000/svg" viewBox="0 0 239.22 149.04"><defs><style>.cls-1{fill:#4f4f4f;}.cls-1,.cls-3{opacity:0.81;}.cls-2{fill:#ebbe40;opacity:0.54;}</style></defs><title>Asset 1</title><g id="Layer_2" data-name="Layer 2"><g id="Layer_1-2" data-name="Layer 1"><path class="cls-1" d="M144.52,119.42,239.22,149s-2.69-32.76-11.22-36.35-13.91-3.59-18,0-10.77,9.87-10.77,9.87S202.42,88,182.22,84.41s-27.38,8.08-27.38,8.08S147.21,102.37,144.52,119.42Z"/><path class="cls-2" d="M85.72,79.48l127.91,25.58s6.76-36.83-18-50.72c-10.74-6-22.44-9.43-32.76-3.59-6.57,3.72-12.65,14.36-12.65,14.36s-8.45-26.48-29.54-22.44S85.72,79.48,85.72,79.48Z"/><path class="cls-3" d="M0,38.67S6.28,1,35,.07,69.12,7.25,74.5,10.84s8.08,18,8.08,18S95.15,9,122.08,14.43,149.93,31,151.7,38.67c1.81,7.82,0,17.06,0,17.06Z"/></g></g></svg>